<?xml version="1.0" encoding="UTF-8"?>
<svg width="28.411" height="28.411" fill="none" version="1.1" viewBox="0 0 28.411 28.411" xmlns="http://www.w3.org/2000/svg">
 <g transform="translate(1.7583)">
  <path d="m0.047223 11.54v0.1043 0.0425 0.0619c0 0.0463 5e-6 0.0927-0.019313 0.1391-0.019318 0.0463 0 0.085 0 0.1275v0.0502c0 0.0502-7e-6 0.1043-0.019325 0.1545-0.019317 0.0502 0 0.0773 0 0.1159v0.0387c-0.001909 0.0141-0.001909 0.0283 0 0.0425-0.00176 0.0166-0.00176 0.0335 0 0.0502-0.001807 0.0076-0.001807 0.0155 0 0.0232 0.002091 0.0128 0.002091 0.0258 0 0.0386v0.0657 0.1738 0.0812 0.0811 0.0386 0.0928 0.0425 0.1661 0.4906c0.032844 2.6821 1.126 5.242 3.0406 7.1205 1.9071 1.8907 4.4853 2.9492 7.1707 2.944 0.4275-0.0017 0.8545-0.0288 1.2788-0.0811 0.1893-0.0232 0.3864-0.0502 0.568-0.085-1.4062-0.852-2.6184-1.9891-3.5584-3.3381-0.34235-0.4907-0.6459-1.0074-0.90791-1.5454-0.06182-0.1198-0.11591-0.2434-0.17-0.3632-0.00801-0.0134-0.01449-0.0276-0.01932-0.0425-0.66797-1.4991-1.0116-3.1225-1.0084-4.7637-0.02263-2.3568 0.6683-4.6652 1.982-6.6221 0.31514-0.4509 0.6611-0.87949 1.0354-1.2826 1.2092-1.3082 2.7011-2.323 4.362-2.9672 0.5033-0.1955 1.0197-0.35558 1.5454-0.47908 0.8865-0.20688 1.794-0.31059 2.7044-0.30907 2.101-0.00399 4.1642 0.55784 5.973 1.6265l-0.0502-0.04637-0.0657-0.06567h-0.0232l-0.0618-0.05796c-0.0199-0.02255-0.0419-0.04323-0.0656-0.06181l-0.0773-0.06954-0.0309-0.03091h-0.0193l-0.1082-0.09659c-0.0371-0.03787-0.0772-0.07275-0.1198-0.10432l-0.0386-0.03476-0.0812-0.06954-0.054-0.04636-0.031-0.02318h-0.0231l-0.0966-0.07728-0.0734-0.05796-0.2357-0.18544c-0.0235-0.01455-0.0455-0.03137-0.0657-0.05023l-0.027-0.01931-0.0464-0.03092-0.0618-0.04636h-0.0193l-0.0348-0.02318h-0.0232l-0.0695-0.05022h-0.0193c-0.058-0.0425-0.116-0.08501-0.1778-0.12364l-0.0811-0.0541h-0.0193l-0.1236-0.08111h-0.0271l-0.085-0.05797-0.1314-0.08498-0.1352-0.08501-0.0734-0.0425h-0.0309l-0.0425-0.02704h-0.027l-0.0966-0.05797h-0.058l-0.0888-0.05022c-0.2009-0.11204-0.4057-0.22021-0.6105-0.32453l-0.1352-0.06567-0.1236-0.05796c-0.143-0.06954-0.2743-0.12749-0.3864-0.18158l-0.0888-0.04251h-0.0271l-0.0541-0.02318-0.0579-0.02318h-0.0271l-0.3516-0.13908-0.1236-0.04636-0.537-0.1816-0.1043-0.03089-0.1043-0.03478h-0.0657l-0.2241-0.06181h-0.4018l-0.4521-0.11206-0.2704-0.05794c-0.1545-0.03477-0.3052-0.06567-0.4598-0.09272l-0.1699-0.03091-0.17-0.02705h-0.1778l-0.4906-0.06181c-0.3207-0.0309-0.6375-0.0541-0.9582-0.06569h-0.537c-0.2975 0-0.5989 0-0.9002 0.03091h-0.0927c-0.3323 0.02318-0.6607 0.05796-0.9891 0.10433l-0.1739 0.02704-11.846 11.846z" clip-path="url(#clipPath12)" fill="#4097db"/>
  <path d="m24.854 16.643v-0.0232c0.0019-0.0192 0.0019-0.0387 0-0.0579v-0.1121c0.0018-0.0076 0.0018-0.0155 0-0.0231v-0.1507c0-0.058 0-0.1159 0.0194-0.17 0-0.0503 0-0.1005 0.0193-0.1507v-0.1584c0.0019-0.027 0.0019-0.0541 0-0.0811v-0.0232-0.1082-0.1661-0.2241-0.1352-0.1816-0.0348-0.1275-0.367c-0.0351-2.6823-1.1295-5.2419-3.0445-7.1205-1.8794-1.854-4.4071-2.903-7.047-2.9247-0.6194-0.00118-1.2376 0.05443-1.8468 0.16613 1.4052 0.84193 2.6175 1.97 3.5583 3.311 1.3764 1.9667 2.1117 4.3105 2.1056 6.7109 0.0056 2.4004-0.7297 4.744-2.1056 6.711-1.3379 1.9251-3.2219 3.4054-5.4089 4.2498-1.3565 0.5187-2.7976 0.7807-4.2499 0.7727-2.1014 4e-3 -4.165-0.5593-5.973-1.6304l0.02704 0.0232 0.02704 0.0309 0.06954 0.0657 0.12751 0.1198 0.08499 0.0811 0.15454 0.1429 0.10431 0.0928h0.02318l0.10046 0.0888v0.0194c0.02663 0.024 0.05505 0.0459 0.085 0.0656l0.08113 0.0657 0.06182 0.0503 0.23568 0.1815 0.05021 0.0387 0.05796 0.0463 0.03477 0.0232h0.01932l0.09272 0.0696 0.03091 0.0193 0.04636 0.0348 0.06954 0.0502h0.02705l0.17772 0.1236 0.08114 0.0541h0.01932l0.06568 0.0425 0.06954 0.0463 0.10818 0.0696 0.10818 0.0695h0.09272l0.1584 0.1546 0.07728 0.0463 0.14681 0.085 0.11977 0.0657c0.20863 0.1198 0.42112 0.2318 0.63361 0.3361l0.1391 0.0696 0.13521 0.0618 0.38635 0.1816 0.09659 0.0425h0.03478l0.13136 0.0541 0.35158 0.1352 0.1159 0.0425 0.53317 0.1816 0.10431 0.0348 0.15841 0.0502h0.0425l0.18931 0.0541 0.09659 0.027c0.38635 0.1082 0.7727 0.197 1.1822 0.2666l0.16226 0.027 0.16227 0.0232 0.16613 0.0232c0.65659 0.0927 1.3189 0.1392 1.982 0.1391 0.6644 2e-4 1.328-0.0463 1.9858-0.1391l0.1546-0.0232 12.189-11.583c0.0023-0.0033 0.0039-0.0072 0.0046-0.0112 6e-4 -4e-3 4e-4 -0.0081-8e-4 -0.012z" clip-path="url(#clipPath11)" fill="#1c4b70"/>
 </g>
 <defs>
  <clipPath id="clipPath11">
   <rect x="-.11891" y="-3.6974" width="160" height="31.577" fill="#fff"/>
  </clipPath>
  <clipPath id="clipPath12">
   <rect x="-.11891" y="-3.6974" width="160" height="31.577" fill="#fff"/>
  </clipPath>
 </defs>
</svg>
