<svg width="160" height="32" viewBox="0 0 160 32" fill="none" xmlns="http://www.w3.org/2000/svg">
<g clip-path="url(#clip0_0_167)">
<path d="M45.5046 26.523C47.6572 26.5264 49.7275 25.6956 51.2805 24.2049L48.9122 21.8366C47.9837 22.6921 46.7671 23.1666 45.5046 23.1656C44.843 23.1687 44.1874 23.041 43.5754 22.79C42.9633 22.5389 42.4069 22.1695 41.9381 21.7028C41.4692 21.2361 41.0972 20.6814 40.8433 20.0705C40.5895 19.4596 40.4588 18.8046 40.4588 18.143C40.4588 17.4815 40.5895 16.8265 40.8433 16.2156C41.0972 15.6047 41.4692 15.05 41.9381 14.5833C42.4069 14.1166 42.9633 13.7472 43.5754 13.4961C44.1874 13.2451 44.843 13.1174 45.5046 13.1205C46.7716 13.1184 47.9913 13.6024 48.9122 14.4727L51.2805 12.0812C49.7275 10.5905 47.6572 9.75965 45.5046 9.76307C43.2809 9.76614 41.1493 10.6508 39.5769 12.2232C38.0046 13.7955 37.1199 15.9272 37.1169 18.1508C37.124 20.3717 38.0105 22.4994 39.5824 24.0684C41.1543 25.6374 43.2836 26.52 45.5046 26.523Z" fill="#4097DB"/>
<path d="M70.1924 18.1354C70.1894 15.9118 69.3047 13.7801 67.7324 12.2078C66.16 10.6354 64.0284 9.75075 61.8047 9.74768C59.5825 9.75279 57.4528 10.6384 55.8821 12.2105C54.3114 13.7826 53.4278 15.9131 53.4248 18.1354C53.4278 20.3576 54.3114 22.4882 55.8821 24.0603C57.4528 25.6324 59.5825 26.518 61.8047 26.5231C64.0284 26.52 66.16 25.6353 67.7324 24.063C69.3047 22.4907 70.1894 20.359 70.1924 18.1354ZM61.8047 23.185C61.1416 23.185 60.485 23.0544 59.8723 22.8006C59.2597 22.5469 58.703 22.1749 58.2341 21.706C57.7652 21.2371 57.3933 20.6804 57.1395 20.0678C56.8857 19.4551 56.7551 18.7985 56.7551 18.1354C56.7551 17.4735 56.8859 16.8182 57.14 16.2071C57.3941 15.5959 57.7665 15.041 58.2358 14.5743C58.705 14.1075 59.2619 13.7381 59.8744 13.4873C60.4869 13.2365 61.1429 13.1092 61.8047 13.1128C63.1368 13.1128 64.4143 13.642 65.3562 14.5839C66.2982 15.5258 66.8273 16.8033 66.8273 18.1354C66.8309 18.7972 66.7036 19.4532 66.4528 20.0657C66.202 20.6782 65.8326 21.2351 65.3658 21.7044C64.8991 22.1736 64.3442 22.546 63.7331 22.8001C63.1219 23.0542 62.4666 23.185 61.8047 23.185Z" fill="#4097DB"/>
<path d="M90.4489 26.5231V9.74768H86.8442L81.9492 22.0105L77.0386 9.74768H73.4301V26.5231H76.772V18.1354L80.1372 26.5231H83.7418L87.107 18.1354V26.5231H90.4489Z" fill="#4097DB"/>
<path d="M97.0323 19.8199H98.4039C99.7326 19.8148 101.005 19.2834 101.943 18.342C102.881 17.4007 103.407 16.1261 103.407 14.7973C103.41 14.1358 103.283 13.4802 103.031 12.8682C102.78 12.2561 102.411 11.6997 101.944 11.2309C101.478 10.762 100.923 10.39 100.312 10.1361C99.7011 9.88224 99.0461 9.75158 98.3846 9.75159H93.6942V26.5231H97.0362L97.0323 19.8199ZM97.0323 13.1128H98.3807C98.8268 13.1128 99.2546 13.2898 99.5704 13.6048C99.8862 13.9199 100.064 14.3474 100.065 14.7935C100.06 15.2365 99.8803 15.6596 99.5648 15.9707C99.2493 16.2819 98.8238 16.4558 98.3807 16.4548H97.0323V13.1128Z" fill="#4097DB"/>
<path d="M114.059 9.74768H110.497L104.423 26.5231H107.989L109.693 21.8289H114.855L116.562 26.5231H120.125L114.059 9.74768ZM110.918 18.4676L112.266 14.6852L113.638 18.4676H110.918Z" fill="#4097DB"/>
<path d="M136.885 26.5231V9.74768H133.543V20.948L126.836 9.74768H122.918V26.5231H126.264V15.3459L132.99 26.5231H136.885Z" fill="#4097DB"/>
<path d="M143.422 9.74768H139.682L144.063 18.5333V26.5231H147.405V18.5333L151.79 9.74768H148.05L145.747 14.3955L143.422 9.74768Z" fill="#4097DB"/>
<path d="M96.2519 0C96.2519 0.0347717 96.2828 0.0656799 96.2944 0.096588C96.2828 0.0656799 96.2674 0.0347717 96.2519 0Z" fill="#FFFBF8"/>
<path d="M0.166135 15.2377V15.2686V15.342C0.166135 15.342 0.166135 15.3691 0.166135 15.3845V15.4232V15.4464C0.166135 15.4927 0.16614 15.5391 0.146822 15.5855C0.127504 15.6318 0.146822 15.6705 0.146822 15.713V15.7632C0.146822 15.8134 0.146815 15.8675 0.127497 15.9177C0.10818 15.9679 0.127497 15.995 0.127497 16.0336V16.0723C0.125588 16.0864 0.125588 16.1006 0.127497 16.1148C0.125737 16.1314 0.125737 16.1483 0.127497 16.165C0.12569 16.1726 0.12569 16.1805 0.127497 16.1882C0.129588 16.201 0.129588 16.214 0.127497 16.2268V16.2925C0.127497 16.3466 0.127497 16.4006 0.127497 16.4663C0.127497 16.4934 0.127497 16.5204 0.127497 16.5475C0.127497 16.5745 0.127497 16.6016 0.127497 16.6286V16.6672C0.127497 16.6981 0.127497 16.729 0.127497 16.76V16.8025C0.127497 16.8604 0.127497 16.9145 0.127497 16.9686V17.1888V17.4592C0.160341 20.1413 1.25351 22.7012 3.1681 24.5797C5.07517 26.4704 7.65337 27.5289 10.3388 27.5237C10.7663 27.522 11.1933 27.4949 11.6176 27.4426C11.8069 27.4194 12.004 27.3924 12.1856 27.3576C10.7794 26.5056 9.56722 25.3685 8.62724 24.0195C8.28489 23.5288 7.98134 23.0121 7.71933 22.4741C7.65751 22.3543 7.60342 22.2307 7.54933 22.1109C7.54132 22.0975 7.53484 22.0833 7.53001 22.0684C6.86204 20.5693 6.51841 18.9459 6.52163 17.3047C6.499 14.9479 7.18993 12.6395 8.50362 10.6826C8.81876 10.2317 9.16472 9.80311 9.53904 9.39995C10.7482 8.09179 12.2401 7.07695 13.901 6.43277C14.4043 6.23727 14.9207 6.07719 15.4464 5.95369C16.3329 5.74681 17.2404 5.6431 18.1508 5.64462C20.2518 5.64063 22.315 6.20246 24.1238 7.27115L24.0736 7.22478L24.0079 7.15911H23.9847L23.9229 7.10115C23.903 7.0786 23.881 7.05792 23.8573 7.03934L23.78 6.9698L23.7491 6.93889H23.7298L23.6216 6.8423C23.5845 6.80443 23.5444 6.76955 23.5018 6.73798L23.4632 6.70322L23.382 6.63368L23.328 6.58732L23.297 6.56414H23.2739L23.1773 6.48686L23.1039 6.4289L22.8682 6.24346C22.8447 6.22891 22.8227 6.21209 22.8025 6.19323L22.7755 6.17392L22.7291 6.143L22.6673 6.09664H22.648L22.6132 6.07346H22.59L22.5205 6.02324H22.5012C22.4432 5.98074 22.3852 5.93823 22.3234 5.8996L22.2423 5.8455H22.223L22.0994 5.76439H22.0723L21.9873 5.70642L21.8559 5.62144L21.7207 5.53643L21.6473 5.49393H21.6164L21.5739 5.46689H21.5469L21.4503 5.40892H21.4232H21.3923L21.3035 5.3587C21.1026 5.24666 20.8978 5.13849 20.693 5.03417L20.5578 4.9685L20.4342 4.91054C20.2912 4.841 20.1599 4.78305 20.0478 4.72896L19.959 4.68645H19.9319L19.8778 4.66327L19.8199 4.64009H19.7928L19.4412 4.50101L19.3794 4.47783L19.3176 4.45465L18.7806 4.27305L18.6763 4.24216L18.572 4.20738H18.5063L18.2822 4.14557H18.2513H18.2049H17.8804L17.4283 4.03351L17.1579 3.97557C17.0034 3.9408 16.8527 3.9099 16.6981 3.88285L16.5282 3.85194L16.3582 3.82489H16.2809H16.1804L15.6898 3.76308C15.3691 3.73218 15.0523 3.70898 14.7316 3.69739C14.5539 3.69739 14.3762 3.69739 14.1946 3.69739C13.8971 3.69739 13.5957 3.69739 13.2944 3.7283H13.2017C12.8694 3.75148 12.541 3.78626 12.2126 3.83263L12.0387 3.85967L0.193182 15.7052L0.166135 15.2377Z" fill="#4097DB"/>
<path d="M24.9731 20.3401V20.3169C24.975 20.2977 24.975 20.2782 24.9731 20.259V20.1817V20.1469C24.9749 20.1393 24.9749 20.1314 24.9731 20.1238V20.0349V19.9731C24.9731 19.9151 24.9731 19.8572 24.9925 19.8031C24.9925 19.7528 24.9925 19.7026 25.0118 19.6524V19.5326V19.494C25.0137 19.467 25.0137 19.4399 25.0118 19.4129V19.3897C25.0118 19.3549 25.0118 19.3201 25.0118 19.2815C25.0118 19.2313 25.0118 19.1772 25.0118 19.1154V18.9531V18.8913C25.0118 18.8449 25.0118 18.8024 25.0118 18.7561C25.0118 18.7097 25.0118 18.6324 25.0118 18.5745V18.5397C25.0118 18.5011 25.0118 18.4547 25.0118 18.4122V18.134V18.0452C24.9767 15.3629 23.8823 12.8033 21.9673 10.9247C20.0879 9.07072 17.5602 8.02167 14.9203 8.00002C14.3009 7.99884 13.6827 8.05445 13.0735 8.16615C14.4787 9.00808 15.691 10.1362 16.6318 11.4772C18.0082 13.4439 18.7435 15.7877 18.7374 18.1881C18.743 20.5885 18.0077 22.9321 16.6318 24.8991C15.2939 26.8242 13.4099 28.3045 11.2229 29.1489C9.86637 29.6676 8.42527 29.9296 6.973 29.9216C4.87155 29.9256 2.80799 29.3623 1 28.2912L1.02704 28.3144L1.05408 28.3453L1.12362 28.411L1.25113 28.5308L1.33612 28.6119L1.49066 28.7548L1.59497 28.8476H1.61815L1.71861 28.9364V28.9558C1.74524 28.9798 1.77366 29.0017 1.80361 29.0214L1.88474 29.0871L1.94656 29.1374L2.18224 29.3189L2.23245 29.3576L2.29041 29.4039L2.32518 29.4271H2.3445L2.43722 29.4967L2.46813 29.516L2.51449 29.5508L2.58403 29.601H2.61108L2.7888 29.7246L2.86994 29.7787H2.88926L2.95494 29.8212L3.02448 29.8675L3.13266 29.9371L3.24084 30.0066H3.33356L3.49196 30.1612L3.56924 30.2075L3.71605 30.2925L3.83582 30.3582C4.04445 30.478 4.25694 30.59 4.46943 30.6943L4.60853 30.7639L4.74374 30.8257L5.13009 31.0073L5.22668 31.0498H5.26146L5.39282 31.1039L5.7444 31.2391L5.8603 31.2816L6.39347 31.4632L6.49778 31.498L6.65619 31.5482H6.69869L6.888 31.6023L6.98459 31.6293C7.37094 31.7375 7.75729 31.8263 8.16683 31.8959L8.32909 31.9229L8.49136 31.9461L8.65749 31.9693C9.31408 32.062 9.97637 32.1085 10.6395 32.1084C11.3039 32.1086 11.9675 32.0621 12.6253 31.9693L12.7799 31.9461L24.9693 20.3633C24.9716 20.36 24.9732 20.3561 24.9739 20.3521C24.9745 20.3481 24.9743 20.344 24.9731 20.3401Z" fill="#1C4B70"/>
</g>
<defs>
<clipPath id="clip0_0_167">
<rect width="160" height="31.5766" fill="white"/>
</clipPath>
</defs>
</svg>
