<svg width="20" height="12" viewBox="0 0 20 12" fill="none" xmlns="http://www.w3.org/2000/svg">
<path d="M0.203857 0.916667C0.203857 0.410406 0.637446 0 1.1723 0H18.6043C19.1392 0 19.5728 0.410406 19.5728 0.916667C19.5728 1.42293 19.1392 1.83333 18.6043 1.83333H1.1723C0.637446 1.83333 0.203857 1.42293 0.203857 0.916667Z" fill="currentColor"/>
<path d="M0.203857 6C0.203857 5.49374 0.637446 5.08333 1.1723 5.08333H18.6043C19.1392 5.08333 19.5728 5.49374 19.5728 6C19.5728 6.50626 19.1392 6.91667 18.6043 6.91667H1.1723C0.637446 6.91667 0.203857 6.50626 0.203857 6Z" fill="currentColor"/>
<path d="M0.203857 11.0833C0.203857 10.5771 0.637446 10.1667 1.1723 10.1667H18.6043C19.1392 10.1667 19.5728 10.5771 19.5728 11.0833C19.5728 11.5896 19.1392 12 18.6043 12H1.1723C0.637446 12 0.203857 11.5896 0.203857 11.0833Z" fill="currentColor"/>
</svg>
