<svg width="19" height="16" viewBox="0 0 19 16" fill="none" xmlns="http://www.w3.org/2000/svg">
<path fill-rule="evenodd" clip-rule="evenodd" d="M1.06409 0.22956C1.38258 -0.0765201 1.89895 -0.0765201 2.21743 0.22956L9.7961 7.51303L17.3748 0.22956C17.6933 -0.0765201 18.2096 -0.0765201 18.5281 0.22956C18.8466 0.53564 18.8466 1.03189 18.5281 1.33798L9.7961 9.72986L1.06409 1.33798C0.745606 1.03189 0.745606 0.53564 1.06409 0.22956Z" fill="currentColor"/>
<path fill-rule="evenodd" clip-rule="evenodd" d="M1.06409 6.4997C1.38258 6.19362 1.89895 6.19362 2.21743 6.4997L9.7961 13.7832L17.3748 6.4997C17.6933 6.19362 18.2096 6.19362 18.5281 6.4997C18.8466 6.80578 18.8466 7.30204 18.5281 7.60812L9.7961 16L1.06409 7.60812C0.745606 7.30204 0.745606 6.80578 1.06409 6.4997Z" fill="currentColor"/>
</svg>
